<svg width="24" height="15" viewBox="-3 0 24 15" fill="none" xmlns="http://www.w3.org/2000/svg">
<path fill-rule="evenodd" clip-rule="evenodd" d="M7.36657 1.82673C8.28696 1.06672 9.45487 0.575146 10.7065 0.421748C11.0516 0.379912 12.0417 0.407803 12.4148 0.470556C13.7884 0.700653 14.9772 1.31076 15.9534 2.28692C16.9504 3.28401 17.571 4.51468 17.7872 5.93012C17.8464 6.32059 17.8464 7.33162 17.7906 7.72557C17.6024 8.97367 17.1248 10.0335 16.2985 11.0201C15.3258 12.1846 13.8267 13.0073 12.3032 13.2165L11.9964 13.2583V13.8301V14.4019H5.99645H0L0.0104589 13.1189C0.0244042 11.9161 0.0278905 11.8255 0.101103 11.6128C0.310282 10.9853 0.857632 10.3194 1.43287 9.98819C1.72572 9.82084 3.50026 8.99459 3.53861 9.01202C3.55952 9.02248 3.86632 9.63955 4.22192 10.3891C4.57753 11.1387 4.87735 11.7488 4.88781 11.7523C4.89827 11.7523 5.03772 11.3967 5.19809 10.9574C5.35497 10.5216 5.50837 10.1102 5.53626 10.0405L5.58507 9.91846L5.79076 9.94984C5.92324 9.97075 6.07664 9.97075 6.20563 9.94984L6.41133 9.91846L6.70069 10.7029C6.85757 11.1352 7.00748 11.5361 7.0284 11.5884C7.06675 11.679 7.10161 11.6128 7.72566 10.3229C8.08475 9.5768 8.39504 8.96321 8.40898 8.96321C8.45082 8.96321 10.3439 9.86965 10.5705 9.99864C10.8355 10.1486 11.1457 10.41 11.334 10.6471L11.4909 10.8423L11.6652 10.8249C12.4984 10.7412 13.1992 10.4832 13.7779 10.044C16.173 8.24154 15.8418 4.57743 13.1643 3.25961C12.467 2.91795 11.7489 2.78198 11.0272 2.85868C10.2916 2.93538 9.58735 3.20034 9.05046 3.60475L8.91101 3.71283L8.9912 4.02659C9.06092 4.28458 9.07487 4.43798 9.07835 4.83193C9.08184 5.4002 9.0156 5.79415 8.83431 6.34499C8.48568 7.39786 7.77447 8.30081 6.98657 8.69825C6.54729 8.91789 5.94067 8.9911 5.49443 8.87605C4.32303 8.57274 3.312 7.28978 2.9808 5.68608C2.89364 5.27121 2.89364 4.47284 2.97731 4.11027C3.11328 3.52805 3.33291 3.12015 3.71641 2.73666C4.13825 2.31482 4.73092 2.02894 5.41424 1.92086C5.76636 1.86508 6.52986 1.89297 6.86106 1.97316L7.10859 2.03591L7.36657 1.82673ZM15.1899 3.05043C14.3253 2.18931 13.363 1.70471 12.1428 1.51994C11.8256 1.47461 11.076 1.45718 10.8459 1.49205C10.3892 1.55829 10.051 1.6315 9.78607 1.71866C9.27359 1.88251 8.62862 2.21023 8.24164 2.49959L8.13356 2.58326L8.3288 2.78895C8.44036 2.904 8.57632 3.07483 8.63211 3.17245C8.69137 3.27006 8.75064 3.35025 8.76459 3.35025C8.77853 3.35025 8.88312 3.29098 8.9912 3.21428C9.91855 2.58675 11.1771 2.33573 12.2579 2.56583C13.9906 2.93189 15.3049 4.24972 15.6814 5.99985C15.7686 6.40774 15.7686 7.2584 15.6814 7.67327C15.4932 8.5588 15.1062 9.27698 14.4752 9.908C13.8476 10.5355 13.119 10.9295 12.2579 11.1073C12.1149 11.1352 11.9615 11.1596 11.9127 11.1596C11.728 11.1596 11.7175 11.184 11.8116 11.3932C11.8604 11.4978 11.9267 11.7174 11.958 11.8778C11.9929 12.0695 12.0313 12.1706 12.0591 12.1706C12.1707 12.1706 12.8366 12.0207 13.0772 11.9405C13.9104 11.6616 14.5484 11.2642 15.1899 10.6227C16.2288 9.58029 16.7726 8.27989 16.7726 6.82959C16.7726 5.40369 16.2183 4.08237 15.1899 3.05043ZM11.3549 5.06898C11.3932 5.01669 11.4804 4.94348 11.5466 4.9121C11.6129 4.87724 11.6861 4.84935 11.7105 4.84935C11.8116 4.84935 12.0068 4.97137 12.0696 5.07247C12.1323 5.17357 12.1358 5.27119 12.1358 6.49837C12.1358 7.57564 12.1254 7.83363 12.087 7.91033C12.0103 8.05675 10.5984 9.4443 10.4833 9.48614C10.1347 9.61513 9.78955 9.17237 9.99524 8.8586C10.0266 8.80979 10.3264 8.49603 10.6576 8.16134L11.2608 7.55124L11.2712 6.35892C11.2817 5.21889 11.2852 5.16311 11.3549 5.06898Z" fill="#004979"/>
</svg>
