<svg width="24" height="30" viewBox="0 0 24 30" fill="none" xmlns="http://www.w3.org/2000/svg">
<path d="M15.3505 29.9951H0.970507C0.710746 29.9951 0.5 29.7844 0.5 29.5246V0.470507C0.5 0.210746 0.710746 0 0.970507 0H22.5454C22.6728 0 22.7905 0.049011 22.8787 0.137232C22.9669 0.225453 23.0159 0.347978 23.0159 0.470507L22.9326 22.3346C22.9326 22.4571 22.8836 22.5748 22.7954 22.663L15.6887 29.853C15.6005 29.9412 15.4779 29.9951 15.3554 29.9951H15.3505ZM1.44102 29.0492H15.1545L21.9867 22.1385L22.0651 0.941029H1.43612V29.0492H1.44102Z" fill="#1FA1D8"/>
<path d="M15.3507 29.995C15.2918 29.995 15.2281 29.9852 15.1693 29.9607C14.9929 29.8872 14.8752 29.7157 14.8752 29.5245V25.9467C14.8752 23.1236 16.1201 21.864 18.9089 21.864H22.4524C22.6436 21.864 22.8151 21.9767 22.8886 22.1532C22.9622 22.3296 22.923 22.5306 22.7906 22.6678L15.6839 29.8578C15.5957 29.9509 15.4732 29.9999 15.3507 29.9999V29.995ZM18.9138 22.805C16.6593 22.805 15.8212 23.6529 15.8212 25.9418V28.3728L21.3252 22.805H18.9089H18.9138Z" fill="#1FA1D8"/>
<path d="M22.4964 0.475342H1.01465V7.73887H22.4964V0.475342Z" fill="#1FA1D8"/>
<path d="M7.43518 6.16563H6.62158V5.44515H7.43518V6.16563ZM9.08197 4.66587V6.16563H8.26837V2.03884H9.90046C10.3661 2.03884 10.7337 2.16627 11.0081 2.40643C11.2728 2.64659 11.41 2.96027 11.41 3.36216C11.41 3.76406 11.2728 4.07283 11.0081 4.31299C10.7337 4.54334 10.3661 4.66587 9.90046 4.66587H9.08687H9.08197ZM9.08197 4.02871H9.89556C10.1259 4.02871 10.2876 3.9748 10.4102 3.84246C10.5278 3.71994 10.5817 3.55331 10.5817 3.36216C10.5817 3.17102 10.5278 2.99947 10.4102 2.87204C10.3024 2.73971 10.1259 2.67599 9.89556 2.67599H9.08197V4.02381V4.02871ZM12.0031 6.16563V2.03884H13.4048C13.9096 2.03884 14.3213 2.20548 14.6399 2.52896C14.9585 2.84263 15.1251 3.25923 15.1251 3.76895V4.44531C15.1251 4.95503 14.9585 5.37163 14.6399 5.68531C14.3213 6.00878 13.9047 6.16563 13.4048 6.16563H12.0031ZM12.8265 2.67599V5.52357H13.3656C13.6597 5.52357 13.8851 5.42064 14.0517 5.2246C14.2184 5.02365 14.2968 4.76388 14.2968 4.44041V3.75425C14.2968 3.43077 14.2135 3.17101 14.0517 2.97496C13.8851 2.76912 13.6597 2.6711 13.3656 2.6711H12.8265V2.67599ZM18.2962 4.45022H16.5807V6.16072H15.7671V2.03394H18.5804V2.6711H16.5807V3.80817H18.2962V4.44531V4.45022Z" fill="#FEFEFE"/>
<path d="M15.6447 18.2715C15.1888 18.2715 14.6301 18.3352 13.9783 18.4578C13.0715 17.4775 12.1256 16.0611 11.4591 14.6643C12.1207 11.8412 11.7874 11.4442 11.6404 11.258C11.4836 11.057 11.263 10.7286 11.018 10.7286C10.9101 10.7286 10.6259 10.7727 10.5131 10.8119C10.2191 10.9149 10.072 11.1354 9.9446 11.4246C9.59662 12.2578 10.0818 13.6644 10.567 14.7574C10.1456 16.4581 9.43978 18.4872 8.6899 20.1438C6.81276 21.0113 5.81293 21.8641 5.72961 22.6777C5.6953 22.9717 5.76881 23.4079 6.27853 23.7951C6.41577 23.9079 6.58241 23.9618 6.75395 23.9618C7.19505 23.9618 7.62635 23.6285 8.13607 22.908C8.50366 22.3787 8.90556 21.668 9.31725 20.7809C10.6455 20.1977 12.2874 19.6635 13.694 19.3645C14.4733 20.1242 15.179 20.5113 15.7819 20.5113C16.223 20.5113 16.6053 20.3055 16.8797 19.9085C17.164 19.5115 17.2277 19.139 17.0709 18.8351C16.8797 18.4578 16.4092 18.2715 15.6348 18.2715H15.6447ZM6.76865 23.1188C6.5383 22.9325 6.54809 22.8149 6.5579 22.7659C6.5873 22.4865 7.01861 21.9964 8.07726 21.3985C7.27347 22.8982 6.84217 23.0894 6.76865 23.1188ZM10.8366 11.6354C10.866 11.6256 11.361 12.1892 10.8905 13.2478C10.175 12.5176 10.7876 11.655 10.8366 11.6354ZM9.81717 19.6586C10.3122 18.4578 10.7876 17.1149 11.1356 15.8749C11.6943 16.8845 12.3609 17.8647 13.0323 18.6489C11.9786 18.8989 10.8513 19.2616 9.81717 19.6586ZM16.2132 19.4282C16.0564 19.6438 15.728 19.6439 15.6103 19.6439C15.3457 19.6439 15.2526 19.487 14.8507 19.1733C15.179 19.139 15.4927 19.1292 15.7476 19.1292C16.1887 19.1292 16.2622 19.1929 16.3259 19.2223C16.3161 19.2567 16.2867 19.3253 16.2181 19.4331L16.2132 19.4282Z" fill="#1FA1D8"/>
</svg>
