<svg width="43" height="46" viewBox="0 0 43 46" fill="none" xmlns="http://www.w3.org/2000/svg">
<path d="M22.6416 0.989669C22.1724 1.16118 21.8294 1.56978 21.7436 2.06414C21.6831 2.43239 21.7235 2.79055 21.9606 3.81962C22.0261 4.1122 22.1018 4.46027 22.1321 4.60152C22.1976 4.96976 22.3742 5.77184 22.5457 6.4932C22.6315 6.84127 22.697 7.1742 22.697 7.23474C22.697 7.30031 22.7525 7.56767 22.8232 7.83503C22.8938 8.10239 22.9493 8.36974 22.9493 8.43532C22.9493 8.5009 23.0098 8.7733 23.0804 9.0457C23.151 9.32315 23.2318 9.6914 23.257 9.873C23.3831 10.7406 23.9884 11.3107 24.7905 11.3056C25.3605 11.3056 25.754 11.0736 26.1021 10.5389C26.2332 10.3421 26.2433 10.2816 26.2433 9.83264C26.2433 9.47953 26.208 9.19199 26.1122 8.78844C25.9406 8.06203 25.7843 7.34067 25.6733 6.74542C25.6228 6.48311 25.532 6.08459 25.4766 5.86264C25.4211 5.64068 25.3706 5.41368 25.3706 5.35819C25.3706 5.3027 25.3 4.98994 25.2193 4.65701C25.1335 4.32911 25.068 4.01131 25.068 3.95078C25.068 3.89529 25.0024 3.57244 24.9217 3.23951C24.8409 2.90657 24.7501 2.48788 24.7148 2.31132C24.5938 1.63536 24.2659 1.19145 23.7564 0.999758C23.4184 0.873646 22.9694 0.868601 22.6416 0.989669Z" fill="#1FA1D8"/>
<path d="M36.1809 1.14597C36.0094 1.17119 35.737 1.22668 35.5756 1.27208C35.2477 1.36793 34.5364 1.68573 34.4002 1.80175C34.3498 1.84211 34.1833 1.97831 34.0269 2.09938C33.8706 2.22044 33.6738 2.40709 33.5881 2.51302C33.5023 2.61896 33.3913 2.75516 33.3358 2.81569C33.2854 2.87622 33.24 2.94685 33.24 2.97207C33.24 2.99225 33.1744 3.10827 33.0887 3.2243C33.0079 3.33527 32.9373 3.4513 32.9373 3.47652C32.9373 3.50174 32.8768 3.65308 32.8062 3.80946C32.7355 3.96583 32.6498 4.2231 32.6195 4.37444C32.5842 4.55604 32.559 6.65454 32.5489 10.3975C32.5338 14.9275 32.5186 16.1281 32.4682 16.0877C32.4379 16.0625 32.3421 16.0272 32.2563 16.0121C32.1756 15.9969 31.9486 15.9364 31.7519 15.8759C31.2474 15.7195 30.2688 15.7548 29.6836 15.9515C29.2549 16.0928 28.6899 16.3753 28.5184 16.5367C28.4629 16.5871 28.4023 16.6325 28.3822 16.6325C28.3368 16.6325 27.6911 17.2782 27.6911 17.3236C27.6911 17.3438 27.6457 17.4043 27.5902 17.4649C27.454 17.6112 27.1412 18.1358 27.1059 18.2821C27.0857 18.3476 27.0605 18.4082 27.0403 18.4233C27.0202 18.4334 26.8587 18.3779 26.6872 18.2922C26.3442 18.1358 25.8448 18.0147 25.3151 17.9643C24.8611 17.9189 23.9783 18.0652 23.5647 18.2518C23.3932 18.3325 23.2368 18.3981 23.2166 18.3981C23.2015 18.3981 23.1107 18.4536 23.0199 18.5242C22.9291 18.5948 22.8332 18.6503 22.808 18.6503C22.7424 18.6503 21.789 19.5735 21.789 19.6289C21.789 19.6542 21.7335 19.745 21.668 19.8307C21.6074 19.9165 21.5065 20.093 21.446 20.2242C21.33 20.4915 21.3552 20.4865 20.8911 20.2847C20.7448 20.2191 20.5935 20.1637 20.5582 20.1637C20.5178 20.1637 20.3413 20.1233 20.1647 20.0779C19.741 19.9669 18.8481 19.9669 18.4193 20.0779C18.2428 20.1283 18.0612 20.1637 18.0158 20.1637C17.9704 20.1637 17.8745 20.1939 17.8039 20.2292C17.7333 20.2645 17.5466 20.3453 17.3902 20.4108C17.2288 20.4764 17.0977 20.542 17.0977 20.5622C17.0977 20.5823 17.022 20.6328 16.9312 20.6782C16.7244 20.7791 16.0787 21.3794 15.8668 21.677C15.5944 22.0553 15.3825 22.5346 15.2816 22.9987C15.1858 23.4274 15.1808 23.6797 15.1808 30.0357C15.1808 33.7283 15.2009 36.765 15.2262 36.9366C15.2514 37.103 15.3018 37.4107 15.3321 37.6176C15.4431 38.4045 15.8416 39.4437 16.4419 40.5282C16.573 40.7653 16.9312 41.2748 17.0169 41.3454C17.0623 41.3807 17.0977 41.4362 17.0977 41.4615C17.0977 41.5169 17.1885 41.6128 17.8442 42.2837C18.1015 42.546 18.3336 42.7629 18.3588 42.7629C18.384 42.7629 18.4445 42.8134 18.495 42.8739C18.5454 42.9395 18.6362 43.0252 18.6917 43.0656C18.7522 43.106 18.9439 43.2422 19.1205 43.3632C19.2971 43.4893 19.4534 43.6003 19.4686 43.6154C19.4837 43.6306 19.5644 43.6861 19.6451 43.7315C19.7309 43.7769 19.9579 43.903 20.1496 44.0089C20.3463 44.1199 20.6742 44.2813 20.881 44.3721C21.0878 44.4629 21.33 44.5689 21.4107 44.6042C21.9757 44.8564 23.0905 45.1994 23.9329 45.381C24.6593 45.5323 25.8851 45.6988 26.6015 45.7392C27.0504 45.7644 27.686 45.8098 28.019 45.8451C28.7857 45.9208 30.9548 45.9208 31.5501 45.8451C31.8023 45.8148 32.2059 45.7644 32.4531 45.7392C32.6952 45.7089 33.1038 45.6332 33.3611 45.5677C33.6133 45.5021 33.8756 45.4365 33.9462 45.4214C34.259 45.3608 35.2174 44.9875 35.6361 44.7656C36.0346 44.5588 36.1759 44.4781 36.307 44.3822C36.3928 44.3267 36.4735 44.2763 36.4886 44.2763C36.5441 44.2763 37.094 43.8525 37.1646 43.7617C37.1999 43.7113 37.2504 43.6709 37.2756 43.6709C37.2958 43.6709 37.4723 43.5095 37.659 43.3128C37.8507 43.111 38.0676 42.889 38.1483 42.8134C38.2239 42.7327 38.2845 42.657 38.2845 42.6368C38.2845 42.6166 38.3349 42.5511 38.4005 42.4905C38.5165 42.3745 38.5619 42.319 39.0563 41.6935C39.2227 41.4766 39.3791 41.3 39.4044 41.3C39.4245 41.3 39.4447 41.2698 39.4447 41.2345C39.4447 41.1991 39.5153 41.1033 39.596 41.0226C39.6818 40.9419 39.7474 40.8511 39.7474 40.8158C39.7474 40.7804 39.7676 40.7451 39.7877 40.735C39.8483 40.7149 40.3527 40.049 40.3527 39.9986C40.3527 39.9733 40.4082 39.9027 40.4788 39.8371C40.5494 39.7716 40.6049 39.6959 40.6049 39.6707C40.6049 39.6454 40.6756 39.5395 40.7563 39.4336C40.837 39.3276 40.9076 39.2267 40.9076 39.2116C40.9076 39.1914 40.9833 39.0653 41.0741 38.9291C41.3969 38.4398 41.5129 38.233 41.5129 38.1523C41.5129 38.1069 41.5281 38.0716 41.5533 38.0716C41.5735 38.0716 41.6441 37.9656 41.7097 37.8294C41.7753 37.6983 41.861 37.5368 41.8963 37.4662C41.9266 37.3956 41.9922 37.2695 42.0325 37.1888C42.1839 36.8861 42.3251 36.528 42.4058 36.2303C42.4462 36.0639 42.5168 35.8116 42.5622 35.6754C42.6126 35.509 42.6429 35.1155 42.658 34.5152C42.6833 33.5769 42.6782 33.5467 42.4209 32.4974C42.2948 31.9778 41.9115 31.1606 41.5583 30.6562C41.407 30.4342 41.291 30.3031 41.0236 30.0206L40.8067 29.7936V17.3741C40.8067 6.26107 40.7966 4.91924 40.726 4.60144C40.6806 4.4047 40.6302 4.16761 40.6049 4.07177C40.5696 3.90025 40.2922 3.29492 40.1106 2.99225C39.9794 2.76525 39.4044 2.17 39.0916 1.93291C38.3047 1.33261 37.1242 1.01481 36.1809 1.14597ZM37.2201 3.74388C37.442 3.79432 37.9667 4.3139 38.1331 4.65188L38.2593 4.90411L38.2744 15.9919L38.2845 27.0847L38.1382 26.9636C38.0524 26.9031 37.9869 26.8325 37.9869 26.8072C37.9818 26.7719 37.432 26.1868 36.8367 25.5865C36.6602 25.415 36.5189 25.2586 36.5189 25.2384C36.5189 25.2233 36.3777 25.0669 36.2062 24.8903C36.0296 24.7138 35.7017 24.3758 35.4747 24.1438L35.056 23.715V14.3524C35.056 7.28006 35.0711 4.95455 35.1165 4.82339C35.2578 4.40975 35.8581 3.7691 36.1002 3.7691C36.1507 3.7691 36.2263 3.74388 36.2667 3.71865C36.3474 3.66317 36.9225 3.68334 37.2201 3.74388ZM31.3584 18.383C31.5097 18.4284 31.6813 18.5192 31.7418 18.5746C31.8023 18.6352 31.8931 18.6957 31.9436 18.7159C31.989 18.7361 32.0545 18.8067 32.0798 18.8773C32.105 18.9479 32.1453 19.0034 32.1706 19.0034C32.1958 19.0034 32.2563 19.0993 32.3068 19.2153C32.3522 19.3364 32.4177 19.4877 32.448 19.5583C32.4833 19.639 32.5136 20.2141 32.5237 21.107L32.5439 22.5245H32.0445C31.535 22.5295 31.2777 22.5699 30.7228 22.7414C30.3697 22.8473 29.8249 23.1248 29.6483 23.2862C29.5878 23.3467 29.5172 23.3921 29.497 23.3921C29.4718 23.3921 29.3961 23.4527 29.3305 23.5283L29.2095 23.6696L29.2044 21.8737C29.2044 20.093 29.2347 19.6895 29.381 19.3919C29.4213 19.3061 29.4566 19.2203 29.4566 19.1901C29.4566 19.1649 29.5273 19.064 29.608 18.9681C29.6937 18.8773 29.7593 18.7764 29.7593 18.7512C29.7593 18.7209 29.7896 18.7008 29.8249 18.7008C29.8652 18.7008 29.9459 18.6453 30.0115 18.5746C30.0771 18.504 30.178 18.4485 30.2385 18.4485C30.294 18.4485 30.3646 18.4284 30.3949 18.4031C30.521 18.2821 31.0002 18.272 31.3584 18.383ZM25.6632 20.5924C26.0113 20.7539 26.3492 21.0969 26.546 21.4853L26.7074 21.8031L26.7225 26.5348L26.7326 31.2615L26.5813 31.6298C26.3997 32.0686 26.1475 32.3562 25.7691 32.568C25.4059 32.7698 25.0629 32.8152 24.735 32.7042C24.1599 32.5075 23.716 32.0485 23.5495 31.4734C23.4587 31.1505 23.4537 30.9185 23.4537 26.6307C23.4537 21.5307 23.4436 21.6972 23.832 21.1776C24.0389 20.8951 24.3768 20.6227 24.6392 20.5269C24.9166 20.426 25.3706 20.4562 25.6632 20.5924ZM20.1344 22.701C20.3614 22.8221 20.5178 22.9533 20.6792 23.1651L20.9062 23.4527L20.9214 27.5639L20.9315 31.6701L20.8104 31.882C20.6288 32.1947 20.3413 32.447 19.9982 32.6084C19.7511 32.7244 19.6249 32.7496 19.3122 32.7496C18.9641 32.7496 18.8884 32.7295 18.5303 32.5479C18.0359 32.2956 17.7736 31.9829 17.7282 31.5894C17.7131 31.4532 17.703 29.5666 17.7131 27.4025C17.7282 22.9684 17.6929 23.382 18.1267 22.9633C18.4899 22.6153 18.7119 22.5346 19.3021 22.5346C19.7864 22.5346 19.8318 22.5447 20.1344 22.701ZM32.6599 25.1325C32.9474 25.2132 33.0029 25.2636 33.694 25.9699C34.0976 26.3785 34.6323 26.9333 34.8795 27.2007C35.6916 28.0684 36.1053 28.5072 36.4432 28.8452C36.6248 29.0268 36.7711 29.1933 36.7711 29.2084C36.7711 29.2235 36.9275 29.39 37.1192 29.5817C37.3058 29.7683 37.8103 30.298 38.2391 30.7571C38.6628 31.2161 39.0966 31.6752 39.2026 31.7811C39.3085 31.887 39.3943 31.993 39.3943 32.0131C39.3943 32.0333 39.4397 32.0989 39.5002 32.1594C39.6112 32.2855 39.9996 33.0826 39.9996 33.1986C39.9996 33.2389 40.0349 33.4054 40.0753 33.5668C40.1812 33.9603 40.1812 34.6817 40.0803 35.1458C40.0097 35.4636 39.8281 35.9478 39.6364 36.3211C39.4498 36.6894 39.2177 37.103 39.1622 37.1686C39.1219 37.209 39.0916 37.2695 39.0916 37.2998C39.0916 37.3502 38.8595 37.7184 38.6578 37.9959C38.6174 38.0514 38.5569 38.1422 38.5216 38.2027C38.4308 38.3591 38.118 38.7828 38.0222 38.8888C37.9717 38.9392 37.9314 38.9997 37.9314 39.0199C37.9314 39.0451 37.8658 39.1259 37.78 39.2066C37.6993 39.2873 37.6287 39.3781 37.6287 39.4083C37.6287 39.4386 37.5883 39.4991 37.5429 39.5395C37.4925 39.5849 37.3159 39.7917 37.1545 40.0036C36.988 40.2205 36.8367 40.392 36.8115 40.392C36.7913 40.392 36.7711 40.4172 36.7711 40.4475C36.7711 40.5232 35.9237 41.4867 35.6664 41.7036C35.5504 41.7994 35.3839 41.9407 35.2981 42.0214C35.2073 42.0971 35.1165 42.1576 35.0913 42.1576C35.0661 42.1576 34.9501 42.2232 34.829 42.3089C34.7079 42.3896 34.5818 42.4603 34.5516 42.4603C34.5263 42.4603 34.4154 42.5107 34.3094 42.5763C34.0068 42.7629 32.8818 43.0959 31.9537 43.2775C31.5047 43.3632 27.9836 43.3632 27.1362 43.2775C25.3202 43.0959 24.1145 42.889 23.3528 42.6318C23.146 42.5611 22.8887 42.4804 22.7828 42.4552C22.6769 42.43 22.4751 42.3493 22.3439 42.2837C22.2077 42.2131 22.0665 42.1576 22.0362 42.1576C22.0009 42.1576 21.8647 42.087 21.7285 42.0063C21.5973 41.9205 21.4561 41.8549 21.4208 41.8549C21.3804 41.8549 21.2644 41.7893 21.1534 41.7036C21.0475 41.6229 20.9365 41.5523 20.9062 41.5523C20.881 41.5523 20.7751 41.4816 20.6792 41.4009C20.5834 41.3202 20.4875 41.2496 20.4674 41.2496C20.3715 41.2496 19.6149 40.5534 19.287 40.165C19.1205 39.9683 18.9742 39.8069 18.954 39.7968C18.9288 39.7867 18.9137 39.7514 18.9137 39.7211C18.9137 39.6908 18.8683 39.6202 18.8178 39.5647C18.7068 39.4437 18.4395 38.9846 18.3285 38.7273C18.2882 38.6315 18.2125 38.46 18.157 38.349C18.1066 38.238 18.041 38.0564 18.0107 37.9454C17.9855 37.8345 17.9149 37.5822 17.8543 37.3906C17.7686 37.103 17.7434 36.8508 17.7181 36.0134C17.698 35.2921 17.703 34.9944 17.7434 34.9944C17.7736 34.9944 17.8594 35.0197 17.9401 35.0499C18.1721 35.1357 18.9137 35.2467 19.3071 35.2467C20.3816 35.2467 21.5015 34.833 22.1724 34.1873C22.2733 34.0864 22.2733 34.0864 22.3792 34.1974C22.5507 34.384 22.8131 34.5909 22.8837 34.5909C22.919 34.5909 22.9493 34.611 22.9493 34.6312C22.9493 34.6665 23.4133 34.9036 23.7816 35.0499C24.2406 35.2315 25.2243 35.2921 25.8751 35.176C26.2483 35.1105 27.0353 34.8027 27.1917 34.6615C27.232 34.6211 27.2926 34.5909 27.3228 34.5909C27.348 34.5909 27.565 34.4093 27.802 34.1873C28.2258 33.7938 28.2359 33.7888 28.3216 33.8846C28.3721 33.9401 28.4326 33.9855 28.4578 33.9855C28.4831 33.9855 28.5486 34.0259 28.6041 34.0763C28.8109 34.2731 29.5373 34.5858 30.0267 34.6968C30.627 34.828 31.3281 34.8128 31.9637 34.6413C32.3976 34.5303 32.9827 34.2529 33.1795 34.0713L33.2904 33.9654L33.4317 34.1016C33.6587 34.3185 33.9462 34.4446 34.2741 34.4748C35.0005 34.5354 35.6109 33.9654 35.6109 33.2289C35.6109 32.8051 35.4596 32.5277 34.9148 31.9627C34.6726 31.7054 34.3397 31.3523 34.1732 31.1808C34.0068 31.0042 33.6789 30.6562 33.4418 30.404C33.2047 30.1517 32.8818 29.8137 32.7255 29.6574C32.564 29.501 32.4329 29.3597 32.4329 29.3446C32.4329 29.3295 32.1252 29.0016 31.7468 28.6132C31.0507 27.8968 30.6673 27.4328 30.6673 27.3167C30.6673 27.2814 30.632 27.1604 30.5916 27.0494C30.3848 26.4793 30.637 25.7025 31.1415 25.3342C31.5753 25.0164 32.0545 24.9559 32.6599 25.1325ZM30.8035 31.3069C31.0053 31.5137 31.1718 31.6953 31.1718 31.7155C31.1718 31.7307 31.2525 31.8215 31.3534 31.9072C31.4492 31.993 31.5198 32.0838 31.5047 32.109C31.4896 32.1342 31.3534 32.1847 31.197 32.22C30.9599 32.2755 30.854 32.2755 30.6017 32.225C30.1931 32.1393 30.067 32.0686 29.7492 31.7407C29.3658 31.3422 29.2498 31.0093 29.2195 30.2274L29.1943 29.6221L29.8198 30.2778C30.1578 30.636 30.6068 31.1001 30.8035 31.3069Z" fill="#1FA1D8"/>
<path d="M8.68348 8.08209C8.38586 8.17794 8.08823 8.45034 7.90159 8.79841C7.76539 9.05063 7.74521 9.14143 7.74521 9.46932C7.74521 9.72659 7.77548 9.90315 7.83601 10.0242C8.01761 10.3874 8.04283 10.4177 8.69862 11.1037C8.92057 11.3358 9.45529 11.8957 9.88407 12.3497C10.3128 12.8037 10.8627 13.3788 11.1048 13.626C11.352 13.8732 11.5487 14.0901 11.5487 14.1052C11.5487 14.1203 11.7404 14.3272 11.9775 14.5542C12.2146 14.7862 12.4063 14.988 12.4063 15.0031C12.4063 15.0183 12.593 15.22 12.825 15.4521C13.052 15.6841 13.3294 15.9767 13.4404 16.1028C13.5514 16.2289 13.6876 16.355 13.7431 16.3803C13.7986 16.4105 13.9348 16.4912 14.0458 16.5568C14.3232 16.7283 14.984 16.7384 15.317 16.577C15.5642 16.4559 15.9576 16.0978 16.003 15.9464C16.0182 15.896 16.0686 15.7598 16.109 15.6488C16.2956 15.1595 16.1241 14.4987 15.7004 14.08C15.5642 13.9438 15.0547 13.4141 14.5754 12.8996C13.1024 11.3358 12.4315 10.6296 11.7152 9.89811C11.4832 9.66101 11.2965 9.45924 11.2965 9.43906C11.2965 9.41888 11.0947 9.20701 10.8425 8.96992C10.5953 8.72779 10.3885 8.50078 10.3885 8.47052C10.3885 8.43521 10.3683 8.40998 10.3381 8.40998C10.3128 8.40998 10.217 8.34441 10.1262 8.26874C10.0354 8.18803 9.86389 8.09723 9.75291 8.06696C9.48555 7.99129 8.96093 7.99634 8.68348 8.08209Z" fill="#1FA1D8"/>
<path d="M0.829214 21.1473C0.718235 21.2179 0.592123 21.2885 0.541678 21.3037C0.405477 21.3541 0.148209 21.7123 0.0725418 21.9695C-0.0333923 22.3126 -0.0233033 22.7817 0.102809 23.1146C0.158298 23.266 0.228921 23.3921 0.254143 23.3921C0.279365 23.3921 0.319721 23.4425 0.344944 23.5081C0.405477 23.6594 0.985593 23.947 1.66155 24.1538C1.95413 24.2395 2.36778 24.3808 2.58469 24.4565C2.80161 24.5372 3.00843 24.6027 3.04878 24.6027C3.08914 24.6027 3.29596 24.6683 3.51288 24.749C3.72979 24.8297 4.11317 24.9559 4.36035 25.0315C4.61257 25.1072 4.99091 25.2384 5.20782 25.314C5.42474 25.3947 5.63156 25.4603 5.67191 25.4603C5.71227 25.4603 5.91909 25.5259 6.13601 25.6066C6.35292 25.6873 6.76657 25.8286 7.05915 25.9194C7.35173 26.0102 7.76033 26.1464 7.96715 26.217C8.55231 26.4288 8.95587 26.4894 9.30898 26.4188C9.62174 26.3532 9.76299 26.2977 9.87397 26.1867C9.90928 26.1464 9.96981 26.101 10.0051 26.0808C10.0354 26.0556 10.1363 25.9395 10.222 25.8134C10.7315 25.082 10.4137 23.8965 9.63183 23.6039C9.2989 23.4778 8.40602 23.1802 8.0176 23.0692C7.77546 22.9986 7.36182 22.8523 6.7817 22.6455C6.59001 22.5749 6.35292 22.4992 6.25203 22.479C6.15618 22.4588 5.89387 22.3832 5.67191 22.3025C5.44996 22.2268 5.08675 22.1007 4.8648 22.025C4.64284 21.9494 4.35026 21.8535 4.20902 21.8031C4.07281 21.7526 3.84581 21.687 3.70457 21.6517C3.45234 21.5861 2.99834 21.4348 2.25176 21.1624C1.70695 20.9707 1.12684 20.9606 0.829214 21.1473Z" fill="#1FA1D8"/>
<path d="M8.39594 34.4142C8.14876 34.4798 7.66953 34.5908 7.3366 34.6665C6.6455 34.8228 5.81821 35.0246 5.01614 35.2213C4.71347 35.3021 4.35027 35.3828 4.20902 35.4029C4.07282 35.4231 3.75502 35.4988 3.50279 35.5694C3.25561 35.64 2.99834 35.7006 2.93781 35.7006C2.87223 35.7006 2.58974 35.7662 2.30725 35.8469C2.01972 35.9276 1.67669 36.0083 1.53545 36.0285C0.778774 36.1344 0.183525 36.5733 0.0523686 37.1181C-0.0132096 37.3955 -0.00312067 37.8697 0.077591 38.1471C0.193614 38.5457 0.61735 38.929 1.04613 39.0249C1.50518 39.1207 1.57076 39.1157 2.64523 38.8483C2.95294 38.7727 3.30101 38.697 3.42713 38.6768C3.55324 38.6566 3.87104 38.586 4.13335 38.5154C4.39567 38.4448 4.73869 38.3641 4.89002 38.3338C5.04136 38.3035 5.32889 38.2279 5.52059 38.1774C5.71732 38.1219 5.92414 38.0715 5.98972 38.0715C6.05026 38.0715 6.31257 38.016 6.56984 37.9504C7.53838 37.6982 8.1538 37.5519 8.37072 37.5166C8.73392 37.4611 9.69237 37.2038 9.87902 37.1181C9.96982 37.0727 10.0556 37.0071 10.0707 36.9718C10.0858 36.9415 10.1262 36.9112 10.1615 36.9112C10.2523 36.9112 10.5802 36.3816 10.6458 36.1294C10.7618 35.7107 10.6054 35.1356 10.2775 34.7623C10.1968 34.6715 9.98999 34.5252 9.81344 34.4445C9.41997 34.2528 9.06181 34.2427 8.39594 34.4142Z" fill="#1FA1D8"/>
</svg>
