<svg width="37" height="37" viewBox="0 0 37 37" fill="none" xmlns="http://www.w3.org/2000/svg">
<circle cx="18.7474" cy="18.4004" r="17.5" fill="white" stroke="#00699C"/>
<circle cx="18.7474" cy="18.4004" r="14" fill="#00699C"/>
<path d="M28.7474 17.4861V18.4061C28.7461 20.5625 28.0479 22.6608 26.7567 24.3879C25.4655 26.1151 23.6507 27.3786 21.5827 27.99C19.5148 28.6014 17.3046 28.528 15.2818 27.7807C13.2591 27.0334 11.532 25.6522 10.3583 23.8432C9.18464 22.0341 8.62717 19.8942 8.76905 17.7424C8.91094 15.5907 9.74458 13.5424 11.1457 11.9032C12.5467 10.2639 14.4402 9.1215 16.5436 8.64626C18.647 8.17102 20.8476 8.38845 22.8174 9.26611" stroke="white" stroke-width="2" stroke-linecap="round" stroke-linejoin="round"/>
<path d="M25.7474 12.4004L18.0551 20.4004L15.7474 18.0028" stroke="white" stroke-width="2" stroke-linecap="round" stroke-linejoin="round"/>
</svg>
