<svg width="25" height="18" viewBox="0 0 25 18" fill="none" xmlns="http://www.w3.org/2000/svg">
<g id="Black">
<path id="Vector" d="M5.9978 0.307638C4.7467 0.445082 3.79868 0.808077 2.83656 1.52702C1.70881 2.36931 0.880617 3.65918 0.570485 5.06182C0.510573 5.33319 0.5 5.51292 0.5 6.34112C0.5 7.18341 0.510573 7.342 0.574009 7.64156C1.06035 9.88297 2.78722 11.6768 5.00044 12.2372C5.56432 12.3781 5.87445 12.4098 6.76256 12.4098H7.54846V13.157C7.54846 14.031 7.56256 14.0838 7.84449 14.1896C8.1511 14.3059 8.15463 14.3024 9.38811 13.0407C10.4242 11.9764 10.5088 11.9024 10.7696 11.7684C10.9211 11.6909 11.0586 11.6416 11.0692 11.6592C11.0833 11.6733 11.1467 11.8283 11.2101 12.0046C11.2771 12.1772 11.3758 12.4169 11.4357 12.5332C11.693 13.0512 12.204 13.7772 12.359 13.8477C12.6269 13.9711 12.9053 13.816 12.9053 13.5411C12.9053 13.4248 12.8771 13.3649 12.7432 13.2028C12.352 12.72 12.0137 12.1032 11.8093 11.5006L11.707 11.1975L11.8903 11.0389C12.3837 10.6231 12.9617 9.9605 12.9969 9.77724C13.0568 9.46711 12.7256 9.23803 12.4542 9.40015C12.4013 9.42834 12.2956 9.54112 12.2181 9.64684C12.0419 9.89002 11.5203 10.3975 11.196 10.6372C11.0621 10.7394 10.7978 10.905 10.6145 11.0037C10.0295 11.3244 9.9696 11.3737 9.13084 12.2407L8.30617 13.09L8.28855 12.6354C8.26388 12.0997 8.19339 11.9235 7.95727 11.7896C7.8304 11.7191 7.76344 11.712 6.88238 11.6944C5.82511 11.6733 5.42687 11.6204 4.81718 11.4125C3.20308 10.8627 1.90969 9.54464 1.41982 7.95169C1.23656 7.34905 1.19075 7.03187 1.19075 6.33054C1.18722 5.61513 1.23304 5.32614 1.43745 4.69883C1.69119 3.91997 2.13524 3.1975 2.72026 2.61248C3.29119 2.04156 3.85507 1.66799 4.54582 1.40015C5.39163 1.06887 5.71234 1.02658 7.263 1.02658C7.92203 1.02658 8.58458 1.0442 8.73612 1.06535C10.5969 1.31909 12.2004 2.54552 12.9405 4.28649C13.4198 5.41424 13.4868 6.70059 13.1344 7.91292C13.0709 8.12085 13.0498 8.26887 13.0639 8.34288C13.1062 8.56843 13.3775 8.67063 13.6066 8.55081C13.7229 8.4909 13.7899 8.3464 13.9097 7.86711C14.0612 7.28209 14.1141 6.75345 14.0859 6.13671C14.0753 5.83715 14.0612 5.52702 14.0577 5.44949C14.0507 5.30852 14.0542 5.30852 14.3079 5.16402C14.7273 4.92438 15.3088 4.7094 15.8233 4.60367C16.4824 4.46623 18.4982 4.44508 19.2489 4.56843C21.4656 4.93143 23.2278 6.66887 23.6401 8.90323C23.7423 9.44244 23.7352 10.4046 23.626 10.8874C23.4639 11.6169 23.2383 12.1561 22.8683 12.72C22.0648 13.9394 20.9123 14.7358 19.478 15.0601C19.2172 15.12 18.9811 15.1341 18.1388 15.1552C17.1696 15.1764 17.1097 15.1799 16.9687 15.2574C16.8771 15.3068 16.7855 15.3913 16.7291 15.4865C16.648 15.631 16.641 15.6698 16.641 16.1138V16.5861L15.7458 15.6874C14.893 14.831 14.833 14.7781 14.5053 14.6019C14.3115 14.4962 14.0859 14.3728 14.0013 14.327C13.8251 14.2283 13.7194 14.2213 13.5784 14.2918C13.4656 14.3517 13.3987 14.4821 13.3987 14.6372C13.3987 14.7922 13.589 14.9614 14.033 15.1905L14.4031 15.3843L15.5485 16.5402L16.6938 17.6997L16.863 17.6962C17.0956 17.6962 17.233 17.6151 17.3141 17.4389C17.3705 17.3085 17.3811 17.2028 17.3811 16.5931V15.8988H18.1529C18.9881 15.8988 19.4322 15.846 20.0524 15.6733C21.1485 15.3631 22.1916 14.7076 22.9317 13.8653C24.0736 12.5649 24.6022 10.9332 24.426 9.23451C24.2533 7.51821 23.411 6.02041 22.033 4.97724C21.3211 4.43451 20.5247 4.07856 19.5837 3.87768C19.2101 3.79662 19.1432 3.7931 17.6278 3.7931C16.13 3.7931 16.0419 3.79662 15.6894 3.87416C15.1819 3.98341 14.6145 4.18077 14.1881 4.39222L13.8286 4.57195L13.7687 4.3746C13.6524 3.99046 13.2013 3.13759 12.9123 2.75345C11.989 1.53407 10.7414 0.737593 9.23656 0.406315C8.81013 0.314686 8.76784 0.311161 7.46035 0.304113C6.72379 0.297064 6.06476 0.300589 5.9978 0.307638Z" fill="#004979"/>
<path id="Vector_2" d="M6.84356 4.26881C6.2832 4.35692 5.87439 4.67057 5.77571 5.08291C5.72285 5.29436 5.88497 5.55516 6.09289 5.59392C6.2832 5.62916 6.37483 5.58335 6.52637 5.38247C6.69554 5.16044 6.85765 5.07938 7.14312 5.07938C7.61184 5.07938 7.85853 5.36837 7.69642 5.71727C7.60479 5.9111 7.58364 5.93577 7.28408 6.18599C6.82946 6.56661 6.70611 6.78159 6.67792 7.25031C6.64267 7.74723 6.72021 7.86353 7.07615 7.86353C7.39686 7.86353 7.4603 7.80009 7.49201 7.45471C7.50611 7.30317 7.54135 7.13401 7.57307 7.0741C7.60126 7.01419 7.80567 6.78864 8.02417 6.57718C8.52814 6.08731 8.65853 5.85119 8.65853 5.43181C8.65853 4.75516 8.14752 4.31815 7.28408 4.25471C7.15016 4.24767 6.94928 4.25119 6.84356 4.26881Z" fill="#004979"/>
<path id="Vector_3" d="M14.8754 7.29628C14.7344 7.44078 14.7309 7.63813 14.8754 7.78967L14.9776 7.89893H15.5591C16.1335 7.89893 16.1441 7.89893 16.2498 7.8073C16.3414 7.72976 16.3591 7.691 16.3591 7.55708C16.3591 7.4302 16.3379 7.38086 16.2569 7.29628L16.1547 7.19408H15.5661H14.9776L14.8754 7.29628Z" fill="#004979"/>
<path id="Vector_4" d="M16.8067 7.26456C16.6939 7.35619 16.6516 7.54297 16.7115 7.69099C16.7996 7.90245 16.7785 7.89892 18.2375 7.89892H19.5732L19.6754 7.79672C19.7565 7.71566 19.7776 7.6628 19.7776 7.5465C19.7776 7.4302 19.7565 7.37734 19.6754 7.29628L19.5732 7.19408H18.234C16.9406 7.19408 16.8948 7.1976 16.8067 7.26456Z" fill="#004979"/>
<path id="Vector_5" d="M6.81187 8.38871C6.54755 8.52968 6.44182 8.92792 6.60746 9.16757C6.73786 9.3614 6.86121 9.43188 7.07266 9.43188C7.50614 9.43188 7.75636 8.98078 7.54138 8.59664C7.40041 8.34642 7.06913 8.25127 6.81187 8.38871Z" fill="#004979"/>
<path id="Vector_6" d="M14.9388 8.88919C14.8543 8.93853 14.7732 9.10769 14.7732 9.23456C14.7732 9.29447 14.812 9.38258 14.8648 9.44602L14.9565 9.55527H18.2128C21.8252 9.55527 21.6102 9.56936 21.6772 9.32619C21.723 9.16055 21.6877 9.03721 21.5679 8.93853L21.4622 8.85042H18.234C16.1054 8.85395 14.9811 8.86452 14.9388 8.88919Z" fill="#004979"/>
<path id="Vector_7" d="M14.9423 10.1437C14.7379 10.2706 14.7132 10.5243 14.8929 10.7041L15.0128 10.8239H18.2057C21.744 10.8239 21.5643 10.8345 21.663 10.5984C21.7335 10.4327 21.6771 10.2424 21.5291 10.1543C21.4198 10.0873 21.3247 10.0838 18.2269 10.0838C15.3194 10.0873 15.0304 10.0909 14.9423 10.1437Z" fill="#004979"/>
<path id="Vector_8" d="M15.0305 11.342C14.9177 11.3631 14.7732 11.5499 14.7732 11.6732C14.7732 11.8036 14.8578 11.9728 14.9459 12.0221C14.9917 12.0468 16.0948 12.0574 18.241 12.0574H21.4692L21.5785 11.9587C21.6701 11.8776 21.6913 11.8318 21.6913 11.719C21.6913 11.5323 21.6384 11.4442 21.4904 11.3737C21.3811 11.3243 21.0675 11.3173 18.2375 11.3208C16.5177 11.3243 15.0728 11.3349 15.0305 11.342Z" fill="#004979"/>
<path id="Vector_9" d="M14.9423 12.6108C14.7379 12.7377 14.7132 12.9915 14.8929 13.1712L15.0128 13.291H16.6128C18.1247 13.291 18.2163 13.2875 18.3185 13.2241C18.4736 13.1289 18.5299 12.9527 18.4595 12.7871C18.3608 12.5474 18.3749 12.5509 16.6163 12.5509C15.2066 12.5545 15.0269 12.558 14.9423 12.6108Z" fill="#004979"/>
</g>
</svg>
