<svg width="24" height="15" viewBox="-5 0 24 15" fill="none" xmlns="http://www.w3.org/2000/svg">
<g id="Black">
<path id="Vector" d="M6.87888 0.406904C6.71686 0.446696 6.60601 0.520597 6.08871 0.935576C5.7789 1.1857 5.49182 1.41024 5.44919 1.43298C5.37529 1.47562 5.31844 1.46993 4.61923 1.35624C4.1133 1.27666 3.82338 1.24255 3.74095 1.25392C3.58462 1.27666 3.39135 1.38466 3.30039 1.50688C3.2606 1.55805 3.10711 1.91902 2.95647 2.30842C2.80583 2.70066 2.66939 3.03321 2.6495 3.05311C2.6296 3.073 2.29705 3.20944 1.91049 3.35724C1.52394 3.50504 1.16865 3.65284 1.12317 3.68695C1.00664 3.77222 0.873046 3.98823 0.850307 4.13319C0.838938 4.2213 0.867361 4.4828 0.952631 5.01431C1.04074 5.56004 1.06632 5.78458 1.04359 5.83006C1.02937 5.86132 0.816199 6.13987 0.568917 6.444C0.324477 6.74813 0.0999336 7.04373 0.0715104 7.09774C-0.00239004 7.24554 -0.019444 7.38481 0.0175062 7.54682C0.0516141 7.70884 0.077195 7.74579 0.637133 8.43363C0.844623 8.69228 1.02937 8.93104 1.04359 8.9623C1.06632 9.00778 1.04074 9.22948 0.952631 9.77805C0.821884 10.591 0.821884 10.6933 0.932735 10.8894C1.04359 11.0827 1.16865 11.1537 1.88491 11.4294C2.2601 11.5744 2.59265 11.7108 2.62676 11.7307C2.66655 11.7591 2.77456 12.0064 2.95647 12.4839C3.1128 12.8961 3.2606 13.2343 3.30608 13.294C3.41124 13.4247 3.65568 13.5498 3.81201 13.5498C3.87738 13.5498 4.25541 13.4987 4.6505 13.4361C5.1479 13.3565 5.3895 13.3281 5.42929 13.348C5.46056 13.3622 5.74763 13.5868 6.06881 13.8454C6.77655 14.4167 6.86467 14.4594 7.20006 14.3599C7.31375 14.3258 7.46155 14.2206 7.9078 13.8568C8.21761 13.6067 8.499 13.3821 8.53595 13.3565C8.5928 13.3196 8.6667 13.3253 9.3318 13.4333C9.73257 13.4987 10.1049 13.5498 10.1589 13.5498C10.3323 13.5498 10.4829 13.4844 10.6194 13.3508C10.7331 13.24 10.7729 13.1689 10.8979 12.8392C11.2276 11.978 11.3072 11.7876 11.3555 11.7449C11.384 11.7194 11.6995 11.5858 12.0576 11.4493C12.4186 11.3101 12.7511 11.1765 12.7994 11.1509C12.9188 11.0884 13.0751 10.9008 13.1121 10.7672C13.1633 10.6023 13.1547 10.5142 13.0325 9.74678C12.9472 9.22948 12.9245 9.02199 12.9444 8.97083C12.9586 8.93388 13.1832 8.64112 13.4418 8.32278C14.1837 7.41039 14.1837 7.39334 13.456 6.48664C13.203 6.17398 12.9785 5.88975 12.9558 5.85564C12.9188 5.80164 12.9273 5.71352 13.0297 5.06263C13.095 4.66186 13.1462 4.27815 13.1462 4.21278C13.1462 4.05076 13.0183 3.80917 12.8762 3.70116C12.808 3.65284 12.4669 3.50504 12.0576 3.34871C11.4465 3.11564 11.347 3.07016 11.3101 3.00195C11.2902 2.95931 11.1566 2.6296 11.0173 2.26863C10.8809 1.90765 10.7331 1.56942 10.6904 1.51257C10.5881 1.38182 10.3977 1.27097 10.23 1.25392C10.139 1.24255 9.88037 1.27381 9.4796 1.33919C8.56438 1.48699 8.60985 1.48415 8.5189 1.42446C8.47626 1.39603 8.20056 1.17717 7.90211 0.935576C7.60651 0.693979 7.32512 0.477962 7.2768 0.458066C7.17448 0.418274 6.95846 0.389851 6.87888 0.406904ZM7.68326 1.34771C8.00728 1.60637 8.32278 1.84228 8.38531 1.8707C8.52458 1.93607 8.68091 1.93892 8.99641 1.88207C9.37728 1.8167 10.1305 1.69732 10.176 1.69732C10.2897 1.69732 10.3636 1.83375 10.6307 2.5358C10.986 3.47093 10.9207 3.40556 11.8785 3.76937C12.6744 4.0735 12.7085 4.09624 12.6801 4.31226C12.6715 4.38332 12.6204 4.72724 12.5635 5.07684C12.5095 5.42645 12.464 5.7391 12.464 5.77321C12.464 5.97502 12.5323 6.07734 13.1832 6.87888C13.3679 7.10911 13.5242 7.32796 13.5328 7.37344C13.5498 7.46724 13.5271 7.50135 12.9188 8.24888C12.4214 8.85998 12.4271 8.84292 12.5323 9.50803C12.7 10.5824 12.6971 10.5654 12.663 10.6506C12.6261 10.7416 12.5891 10.7586 11.725 11.0884C11.1367 11.3129 11.0002 11.3953 10.9036 11.5829C10.8752 11.6398 10.7586 11.9297 10.645 12.2281C10.5341 12.5237 10.4147 12.8279 10.3835 12.9018C10.2925 13.1178 10.2811 13.1178 9.4256 12.9842C9.02199 12.9188 8.65817 12.8677 8.62122 12.8677C8.44216 12.8677 8.28583 12.9643 7.72021 13.4247C7.40187 13.6834 7.11479 13.9079 7.08637 13.9222C6.98689 13.9762 6.89025 13.9222 6.47242 13.5839C5.67657 12.9359 5.57141 12.8677 5.3696 12.8677C5.33834 12.8677 5.10811 12.8989 4.85798 12.9387C3.71253 13.1206 3.80348 13.1121 3.71537 13.0467C3.66137 13.0069 3.60452 12.9046 3.53062 12.7085C3.34587 12.2281 3.19807 11.8359 3.19807 11.8302C3.19807 11.8274 3.27765 11.816 3.37145 11.8075C3.58462 11.7876 3.90581 11.6398 4.04508 11.4948C4.13888 11.3982 4.14172 11.3953 4.26394 11.4351C4.57659 11.5289 5.04842 11.5119 8.35689 11.2902C9.07599 11.2418 9.16695 11.2191 9.34317 11.0429C9.48529 10.8979 9.54782 10.753 9.55919 10.5227C9.56772 10.3465 9.55919 10.3039 9.48529 10.1589L9.40286 9.99691L9.49382 9.90027C9.73257 9.64446 9.79226 9.21527 9.63309 8.87419L9.56772 8.73207L9.70699 8.60985C10.0594 8.30288 10.1134 7.79126 9.83489 7.4246L9.73257 7.29386L9.83205 7.16027C10.1703 6.69697 10.0253 6.06881 9.52792 5.84427L9.38012 5.77605L7.89643 5.76753C6.94425 5.76184 6.40989 5.75047 6.40989 5.73058C6.40989 5.71637 6.50085 5.34118 6.6117 4.90062C6.82487 4.04224 6.84761 3.85749 6.76803 3.59315C6.65433 3.21796 6.32747 2.92236 5.93238 2.83709C5.71921 2.79161 5.60267 2.7973 5.53162 2.85415C5.49751 2.88541 5.1678 3.57325 4.76135 4.46574C4.37195 5.32413 4.04792 6.03186 4.0394 6.03755C4.03371 6.04608 3.97686 6.01765 3.91433 5.97502C3.8518 5.93522 3.73242 5.87269 3.65 5.83859C3.50504 5.78174 3.44251 5.77605 2.51591 5.76753L1.53247 5.75616L1.41025 4.97452C1.28803 4.19572 1.28803 4.19004 1.34203 4.11898C1.38466 4.06213 1.56373 3.97971 2.10661 3.77222C2.49601 3.62157 2.84846 3.47661 2.89394 3.44819C3.02753 3.35724 3.08437 3.24639 3.36861 2.51307C3.57325 1.97871 3.66137 1.78543 3.71537 1.74564C3.79496 1.68595 3.75232 1.68311 4.72724 1.83659C5.02852 1.88491 5.32413 1.92471 5.38097 1.92471C5.5572 1.92471 5.74763 1.80533 6.32462 1.33066C6.81919 0.92705 6.89025 0.875888 6.98689 0.875888C7.08352 0.873045 7.1489 0.91568 7.68326 1.34771ZM6.00628 3.34303C6.22798 3.45672 6.35305 3.66421 6.35305 3.91433C6.35305 4.03087 6.15977 4.86935 5.95228 5.65384L5.92386 5.76184H5.759C5.63394 5.76184 5.57425 5.77605 5.5174 5.82153C5.41792 5.90112 5.41508 6.04892 5.51456 6.14556L5.58278 6.21661H7.43882C9.24938 6.21661 9.2977 6.21946 9.38865 6.27346C9.51087 6.34736 9.57624 6.50369 9.5535 6.66286C9.5194 6.91014 9.40286 7.0011 9.04189 7.05794C8.78892 7.09774 8.68375 7.16879 8.68375 7.29954C8.68375 7.48713 8.74913 7.52693 9.08736 7.55251C9.36307 7.5724 9.44834 7.62072 9.52508 7.79979C9.57909 7.92485 9.57624 7.99591 9.50803 8.13518C9.43697 8.28014 9.34317 8.33699 9.09589 8.37678C8.75481 8.43363 8.68375 8.47911 8.68375 8.65533C8.68375 8.76334 8.78039 8.84861 8.93672 8.87419C9.17832 8.91398 9.31475 9.13852 9.25506 9.4057C9.21527 9.57908 9.13 9.64446 8.87135 9.70983C8.61269 9.77521 8.53311 9.83774 8.53595 9.97417C8.53879 10.0964 8.64964 10.1959 8.78323 10.1959C8.98788 10.1959 9.1101 10.3181 9.1101 10.5227C9.1101 10.5995 9.08736 10.6478 9.03052 10.7075C8.93104 10.8041 9.02199 10.7956 7.17732 10.9065C6.40421 10.9519 5.57141 11.0059 5.32981 11.023C4.90346 11.0543 4.46859 11.04 4.39469 10.9946C4.36626 10.9775 4.36626 10.9462 4.389 10.861C4.4089 10.7871 4.42027 10.1021 4.42027 8.77755C4.42027 7.10342 4.41458 6.78224 4.37763 6.64012C4.34068 6.49801 4.33784 6.4639 4.37195 6.40989C4.39469 6.37294 4.7244 5.65668 5.10242 4.81535C5.65668 3.59599 5.80448 3.28902 5.84711 3.28902C5.87554 3.28902 5.94659 3.3146 6.00628 3.34303Z" fill="#004979"/>
<path id="Vector_2" d="M8.10956 2.69775C8.05556 2.7148 8.02145 2.76028 7.99018 2.84271C7.91344 3.05304 7.85944 3.26906 7.85944 3.36001C7.85944 3.53908 8.08682 3.63856 8.2261 3.52202C8.26305 3.49076 8.30852 3.37991 8.35684 3.20368C8.44495 2.87397 8.44495 2.85408 8.36537 2.76596C8.28578 2.68069 8.20904 2.6608 8.10956 2.69775Z" fill="#004979"/>
<path id="Vector_3" d="M9.1897 3.18117C9.12433 3.23233 8.85431 3.71552 8.85431 3.7809C8.85431 3.8548 9.00779 3.99976 9.08738 3.99976C9.19539 3.99976 9.26645 3.93154 9.40288 3.6871C9.56773 3.39718 9.58194 3.30623 9.47962 3.20391C9.41425 3.13853 9.25792 3.12716 9.1897 3.18117Z" fill="#004979"/>
<path id="Vector_4" d="M9.95711 4.10769C9.76384 4.30097 9.73541 4.3436 9.73541 4.42887C9.73541 4.52836 9.80647 4.62499 9.90879 4.6591C9.98838 4.68753 10.1163 4.6051 10.3124 4.40329C10.4716 4.2356 10.5028 4.18728 10.5028 4.10769C10.5028 3.97979 10.4062 3.88599 10.2755 3.88599C10.193 3.88599 10.1475 3.9201 9.95711 4.10769Z" fill="#004979"/>
<path id="Vector_5" d="M10.7046 4.99154C10.3778 5.18198 10.3181 5.29851 10.4716 5.452C10.5171 5.49747 10.5824 5.53442 10.6194 5.53442C10.6535 5.53442 10.7956 5.46905 10.9349 5.38947C11.2731 5.19619 11.33 5.08534 11.1765 4.9148C11.0884 4.81816 10.9747 4.83521 10.7046 4.99154Z" fill="#004979"/>
<path id="Vector_6" d="M11.1992 6.03462C10.9235 6.11136 10.8155 6.18526 10.8155 6.3018C10.8155 6.39275 10.8865 6.49792 10.9718 6.52918C11.0486 6.55761 11.5914 6.41833 11.6568 6.35296C11.6767 6.33306 11.7023 6.27337 11.7137 6.22505C11.7279 6.14831 11.7165 6.11989 11.6454 6.04599C11.5431 5.94366 11.5289 5.94366 11.1992 6.03462Z" fill="#004979"/>
<path id="Vector_7" d="M11.0173 7.25707C10.9206 7.37929 10.9576 7.54699 11.0912 7.60668C11.1935 7.655 11.654 7.64647 11.7506 7.59531C11.8842 7.52709 11.9126 7.34234 11.8046 7.24002C11.7506 7.18886 11.7051 7.18317 11.4095 7.18317C11.0827 7.18317 11.0741 7.18602 11.0173 7.25707Z" fill="#004979"/>
</g>
</svg>
