<svg width="33" height="32" viewBox="0 0 33 32" fill="none" xmlns="http://www.w3.org/2000/svg">
<g clip-path="url(#clip0_2043_45)">
<path fill-rule="evenodd" clip-rule="evenodd" d="M16.3646 3.19116C16.0475 3.19116 15.7777 3.31525 15.5685 3.55037C13.7671 5.63379 12.067 11.4269 10.7513 11.5379C7.63434 11.8122 2.36512 11.9624 0.759388 12.0473C0.664933 12.5502 0.658186 13.987 0.772881 14.6075C0.793122 14.7316 0.847096 14.8492 0.92131 14.9667C2.41234 17.2722 6.87195 20.6553 7.28351 21.8701C6.93942 23.5355 6.38619 26.9121 6.31872 28.2967C6.31872 29.2045 6.27149 30.1711 6.33221 31.0789C6.35245 31.3859 6.50088 31.6406 6.75726 31.8169C7.01363 31.9998 7.31049 32.052 7.6141 31.9802C10.3398 31.3206 15.0423 28.2575 16.3646 28.2575C17.687 28.2575 22.3895 31.3206 25.1152 31.9802C25.4255 32.052 25.7157 31.9998 25.972 31.8169C26.2284 31.634 26.3768 31.3793 26.3971 31.0789C26.4645 30.1711 26.4106 29.2045 26.4106 28.2967C26.3431 26.9121 25.7831 23.542 25.4458 21.8701C25.8573 20.6488 30.3169 17.2722 31.808 14.9667C31.8822 14.8557 31.9294 14.7316 31.9564 14.6075C32.0711 13.9805 32.0711 12.5437 31.9699 12.0473C30.3642 11.9689 25.1017 11.8122 21.9779 11.5379C20.6623 11.4203 18.9621 5.63379 17.1608 3.55037C16.9584 3.31525 16.6817 3.19116 16.3646 3.19116Z" fill="url(#paint0_radial_2043_45)"/>
<path fill-rule="evenodd" clip-rule="evenodd" d="M25.1152 29.5833C25.4255 29.6552 25.7157 29.6029 25.972 29.4201C26.2284 29.2372 26.3768 28.9825 26.3971 28.6821C26.5927 25.9717 25.0342 20.6945 25.4458 19.4798C25.8573 18.2584 30.3169 14.8819 31.808 12.5764C31.9767 12.3152 32.0104 12.0278 31.9159 11.7339C31.8147 11.44 31.6123 11.231 31.3222 11.1134C28.718 10.0946 23.0574 9.89865 21.9847 9.14757C20.912 8.3965 18.9689 3.24347 17.1675 1.16005C16.9516 0.918402 16.6817 0.794312 16.3646 0.794312C16.0476 0.794312 15.7777 0.918402 15.5685 1.15352C13.7671 3.23694 11.8241 8.38997 10.7513 9.14104C9.67861 9.89212 4.01808 10.0946 1.41383 11.1069C1.11697 11.2245 0.91457 11.4335 0.820116 11.7274C0.725661 12.0212 0.759395 12.3086 0.928064 12.5699C2.4191 14.8753 6.87871 18.2584 7.29026 19.4732C7.70181 20.6945 6.14331 25.9651 6.33896 28.6755C6.3592 28.9825 6.50763 29.2372 6.76401 29.4135C7.02039 29.5964 7.31725 29.6487 7.62085 29.5768C10.3465 28.9172 15.049 25.8541 16.3714 25.8541C17.6938 25.8541 22.3963 28.9172 25.1219 29.5768L25.1152 29.5833Z" fill="url(#paint1_radial_2043_45)"/>
<path style="mix-blend-mode:multiply" fill-rule="evenodd" clip-rule="evenodd" d="M30.7421 12.4392C27.5913 14.6272 25.8237 15.9334 23.071 17.6902C22.6999 17.9254 22.3424 18.4348 22.4773 18.8397C23.2869 21.3738 25.5875 25.4296 25.7495 27.9636C25.8439 29.4527 24.5351 29.0021 23.7592 28.682C21.0942 27.5718 19.2996 26.0043 16.7493 24.7438C15.7913 24.267 15.0761 24.4107 14.2328 24.9463C12.6945 25.9194 9.94856 28.3032 7.66141 28.9955C7.01372 29.1915 6.60892 29.1458 6.35254 28.8584C6.40651 29.087 6.54145 29.2829 6.7506 29.4266C7.00697 29.6095 7.30383 29.6617 7.60744 29.5899C10.3331 28.9302 15.0356 25.8671 16.358 25.8671C17.6803 25.8671 22.3828 28.9302 25.1085 29.5899C25.4189 29.6617 25.709 29.6095 25.9654 29.4266C26.2217 29.2437 26.3702 28.989 26.3904 28.6886C26.5861 25.9782 25.0276 20.7011 25.4391 19.4863C25.8507 18.265 30.3103 14.8884 31.8013 12.5829C31.97 12.3217 32.0037 12.0343 31.9093 11.7404C31.8081 11.4465 31.6057 11.2375 31.3155 11.12C28.7113 10.1011 23.0508 9.90518 21.978 9.1541C20.9053 8.40303 18.9622 3.25 17.1608 1.16658C16.9584 0.931464 16.6818 0.807373 16.3647 0.807373C16.0476 0.807373 15.7778 0.931464 15.5686 1.16658C15.2852 1.49314 15.0019 1.89153 14.7185 2.33565C15.5079 1.53885 16.3242 1.04249 17.0529 2.14625C18.409 4.19701 18.996 6.39145 19.7246 8.46181C20.1834 9.75496 20.4533 10.284 23.0845 10.4603C26.0936 10.6628 28.5966 10.8587 30.3912 11.1526C31.3763 11.3159 31.4033 11.9886 30.7353 12.4458L30.7421 12.4392Z" fill="url(#paint2_radial_2043_45)"/>
<path style="mix-blend-mode:screen" fill-rule="evenodd" clip-rule="evenodd" d="M14.6239 2.91697C13.7671 4.45178 13.025 6.12374 12.2288 7.68467C11.5474 9.01701 11.2978 9.80074 9.5976 10.0881C7.49936 10.4343 5.35389 10.493 3.2489 10.8261C0.968495 11.1788 0.435501 11.6817 2.08846 13.4516C3.06674 14.5031 7.55333 18.4283 7.84344 19.3949C8.10657 20.2439 7.61405 21.8049 7.57357 22.7845C7.55333 23.2482 7.7355 23.9405 8.53161 23.0915C14.7184 16.4755 16.2971 15.2411 25.2973 12.3348C26.2688 12.0213 27.2606 11.7927 28.2389 11.5054C28.5088 11.427 28.8798 11.1657 28.0702 11.0547C25.2568 10.6824 23.0034 10.9829 20.5678 10.7673C19.4816 10.6694 18.7867 9.40887 18.4494 8.52718C17.7409 6.66582 17.3699 4.69996 16.6952 2.83207C16.1622 1.36257 15.1839 1.89812 14.6104 2.93003L14.6239 2.91697Z" fill="url(#paint3_radial_2043_45)"/>
<path style="mix-blend-mode:screen" fill-rule="evenodd" clip-rule="evenodd" d="M7.42526 11.538C6.84504 11.4269 6.99347 10.8457 7.52647 10.7216C8.39005 10.5257 9.29412 10.4865 10.1577 10.2905C11.0348 10.0881 11.5745 9.80723 12.094 8.76879C13.0183 6.92049 13.9561 4.54971 14.9344 2.91041C15.292 2.32261 15.69 2.40751 15.5956 3.07368C15.2987 5.17016 14.786 7.16867 14.172 9.25209C13.8617 10.3036 13.5176 11.4335 12.0198 11.6033C10.9268 11.7339 8.56547 11.76 7.42526 11.538ZM5.30004 10.8653C4.61861 10.911 3.26251 11.0743 2.42592 11.3551C1.52185 11.6621 1.71076 11.8515 2.53386 11.8972C3.41094 11.9429 4.29477 11.9364 5.17185 11.8776C6.4065 11.7862 6.23784 10.8065 5.30678 10.8718L5.30004 10.8653Z" fill="url(#paint4_radial_2043_45)"/>
<path style="mix-blend-mode:screen" fill-rule="evenodd" clip-rule="evenodd" d="M23.0237 27.1212C22.6189 27.2844 21.6338 27.4934 22.828 28.1269C23.334 28.3947 23.8805 28.5972 24.4337 28.7539C25.6279 29.0805 25.6414 28.251 25.4593 27.4085C25.1152 25.7758 24.3393 23.8556 23.6241 22.2686C23.2935 21.5436 22.8887 21.1648 23.0169 22.3208C23.1654 23.627 23.4015 24.9202 23.5432 26.2264C23.6039 26.8207 23.5837 26.9056 23.0304 27.1212H23.0237Z" fill="url(#paint5_radial_2043_45)"/>
<path fill-rule="evenodd" clip-rule="evenodd" d="M7.1958 21.6742C7.34423 20.6684 7.41844 19.8651 7.2835 19.4732C6.87195 18.2519 2.41234 14.8753 0.92131 12.5699C0.813362 12.4066 0.759388 12.2237 0.759388 12.0474C0.664933 12.5503 0.658186 13.9871 0.772881 14.6075C0.793122 14.7316 0.847096 14.8492 0.92131 14.9668C2.33813 17.1547 6.44016 20.3222 7.1958 21.6742Z" fill="url(#paint6_radial_2043_45)"/>
<path fill-rule="evenodd" clip-rule="evenodd" d="M31.8013 12.5699C30.3102 14.8753 25.8506 18.2584 25.4391 19.4732C25.3109 19.8651 25.3784 20.6684 25.5268 21.6742C26.2757 20.3222 30.3845 17.1547 31.8013 14.9668C31.8755 14.8557 31.9227 14.7316 31.9497 14.6075C32.0644 13.9806 32.0644 12.5437 31.9632 12.0474C31.9632 12.2302 31.9092 12.4066 31.8013 12.5699Z" fill="url(#paint7_radial_2043_45)"/>
<path fill-rule="evenodd" clip-rule="evenodd" d="M25.1151 29.5833C22.3894 28.9237 17.6869 25.8606 16.3646 25.8606C16.7829 26.1022 16.7761 27.944 16.3646 28.2575C17.6869 28.2575 22.3894 31.3206 25.1151 31.9802C25.4255 32.0521 25.7156 31.9998 25.972 31.8169C26.2283 31.6341 26.3768 31.3794 26.397 31.0789C26.4577 30.1972 26.4105 29.2568 26.4105 28.3685C26.4105 28.4796 26.4037 28.5841 26.397 28.682C26.3768 28.989 26.2283 29.2437 25.972 29.42C25.7156 29.6029 25.4187 29.6552 25.1151 29.5833Z" fill="url(#paint8_radial_2043_45)"/>
<path style="mix-blend-mode:screen" opacity="0.5" fill-rule="evenodd" clip-rule="evenodd" d="M8.03919 31.8561C7.87052 31.4904 7.85028 29.7531 8.0122 29.4723C7.87727 29.5115 7.74233 29.5507 7.61415 29.5833C7.30379 29.6552 7.01368 29.6029 6.75731 29.42C6.54816 29.2764 6.41322 29.0804 6.35925 28.8518C6.34575 28.7996 6.33901 28.7408 6.33226 28.682C6.32551 28.5841 6.31877 28.473 6.31877 28.3685C6.31877 29.2568 6.27154 30.1972 6.33226 31.0789C6.3525 31.3859 6.50093 31.6406 6.75731 31.8169C7.01368 31.9998 7.31054 32.0521 7.61415 31.9802C7.74908 31.9476 7.89076 31.9084 8.03919 31.8627V31.8561Z" fill="url(#paint9_radial_2043_45)"/>
<path style="mix-blend-mode:screen" opacity="0.5" fill-rule="evenodd" clip-rule="evenodd" d="M24.6835 31.8561C24.8521 31.4904 24.8724 29.7531 24.7105 29.4723C24.8454 29.5115 24.9803 29.5507 25.1085 29.5833C25.4189 29.6552 25.709 29.6029 25.9654 29.42C26.1745 29.2764 26.3094 29.0804 26.3634 28.8518C26.3769 28.7996 26.3837 28.7408 26.3904 28.682C26.3971 28.5841 26.4039 28.473 26.4039 28.3685C26.4039 29.2568 26.4511 30.1972 26.3904 31.0789C26.3702 31.3859 26.2217 31.6406 25.9654 31.8169C25.709 31.9998 25.4121 32.0521 25.1085 31.9802C24.9736 31.9476 24.8319 31.9084 24.6835 31.8627V31.8561Z" fill="url(#paint10_radial_2043_45)"/>
<path style="mix-blend-mode:screen" opacity="0.5" fill-rule="evenodd" clip-rule="evenodd" d="M1.91308 16.2208C1.58249 15.4436 1.55551 13.8304 1.93332 13.85C1.52852 13.3994 1.18443 12.9683 0.92131 12.5634C0.813362 12.4001 0.759388 12.2172 0.759388 12.0409C0.664933 12.5438 0.658186 13.9806 0.772881 14.6011C0.793122 14.7252 0.847096 14.8427 0.92131 14.9603C1.17769 15.3522 1.51502 15.7767 1.91308 16.2208Z" fill="url(#paint11_radial_2043_45)"/>
<path style="mix-blend-mode:screen" opacity="0.5" fill-rule="evenodd" clip-rule="evenodd" d="M30.8162 16.2208C31.1468 15.4436 31.1738 13.8304 30.796 13.85C31.2008 13.3994 31.5448 12.9683 31.808 12.5634C31.9159 12.4001 31.9699 12.2172 31.9699 12.0409C32.0644 12.5438 32.0711 13.9806 31.9564 14.6011C31.9362 14.7252 31.8822 14.8427 31.808 14.9603C31.5516 15.3522 31.2143 15.7767 30.8162 16.2208Z" fill="url(#paint12_radial_2043_45)"/>
</g>
<defs>
<radialGradient id="paint0_radial_2043_45" cx="0" cy="0" r="1" gradientUnits="userSpaceOnUse" gradientTransform="translate(6.59534 32.2676) scale(13.1359 12.716)">
<stop stop-color="#FC8200"/>
<stop offset="1" stop-color="#E34F00"/>
</radialGradient>
<radialGradient id="paint1_radial_2043_45" cx="0" cy="0" r="1" gradientUnits="userSpaceOnUse" gradientTransform="translate(9.92824 7.26009) scale(29.0381 28.1098)">
<stop stop-color="#FCF800"/>
<stop offset="1" stop-color="#FC9700"/>
</radialGradient>
<radialGradient id="paint2_radial_2043_45" cx="0" cy="0" r="1" gradientUnits="userSpaceOnUse" gradientTransform="translate(10.6367 6.01265) scale(30.2322 29.2658)">
<stop stop-color="white"/>
<stop offset="0.1" stop-color="#FFFCF9"/>
<stop offset="0.22" stop-color="#FFF6E9"/>
<stop offset="0.36" stop-color="#FFECCE"/>
<stop offset="0.51" stop-color="#FFDEA9"/>
<stop offset="0.67" stop-color="#FFCB7A"/>
<stop offset="0.84" stop-color="#FFB540"/>
<stop offset="1" stop-color="#FF9D00"/>
</radialGradient>
<radialGradient id="paint3_radial_2043_45" cx="0" cy="0" r="1" gradientUnits="userSpaceOnUse" gradientTransform="translate(6.48734 1.9569) scale(25.7119 24.89)">
<stop stop-color="#FFF261"/>
<stop offset="0.11" stop-color="#FAED5F"/>
<stop offset="0.23" stop-color="#ECE05A"/>
<stop offset="0.36" stop-color="#D6CB51"/>
<stop offset="0.5" stop-color="#B6AD45"/>
<stop offset="0.64" stop-color="#8E8636"/>
<stop offset="0.78" stop-color="#5C5723"/>
<stop offset="0.92" stop-color="#22210D"/>
<stop offset="1"/>
</radialGradient>
<radialGradient id="paint4_radial_2043_45" cx="0" cy="0" r="1" gradientUnits="userSpaceOnUse" gradientTransform="translate(10.6502 4.88279) scale(15.2679 14.7798)">
<stop stop-color="#FFFACF"/>
<stop offset="1"/>
</radialGradient>
<radialGradient id="paint5_radial_2043_45" cx="0" cy="0" r="1" gradientUnits="userSpaceOnUse" gradientTransform="translate(15.6899 24.1169) scale(18.2837 17.6992)">
<stop/>
<stop offset="0.17" stop-color="#251B00"/>
<stop offset="0.54" stop-color="#846100"/>
<stop offset="1" stop-color="#FFBB00"/>
</radialGradient>
<radialGradient id="paint6_radial_2043_45" cx="0" cy="0" r="1" gradientUnits="userSpaceOnUse" gradientTransform="translate(1.95356 13.4385) scale(9.06765 8.77778)">
<stop stop-color="#FCAC00"/>
<stop offset="1" stop-color="#E36600"/>
</radialGradient>
<radialGradient id="paint7_radial_2043_45" cx="0" cy="0" r="1" gradientUnits="userSpaceOnUse" gradientTransform="translate(46.8466 21.4521) scale(21.7246 21.0301)">
<stop stop-color="#FCAC00"/>
<stop offset="1" stop-color="#E36600"/>
</radialGradient>
<radialGradient id="paint8_radial_2043_45" cx="0" cy="0" r="1" gradientUnits="userSpaceOnUse" gradientTransform="translate(28.0634 28.4012) scale(11.5505 11.1812)">
<stop stop-color="#FCAC00"/>
<stop offset="1" stop-color="#FF6600"/>
</radialGradient>
<radialGradient id="paint9_radial_2043_45" cx="0" cy="0" r="1" gradientUnits="userSpaceOnUse" gradientTransform="translate(5.07062 26.9121) scale(6.47014 6.26331)">
<stop stop-color="#FFF261"/>
<stop offset="0.11" stop-color="#FAED5F"/>
<stop offset="0.23" stop-color="#ECE05A"/>
<stop offset="0.36" stop-color="#D6CB51"/>
<stop offset="0.5" stop-color="#B6AD45"/>
<stop offset="0.64" stop-color="#8E8636"/>
<stop offset="0.78" stop-color="#5C5723"/>
<stop offset="0.92" stop-color="#22210D"/>
<stop offset="1"/>
</radialGradient>
<radialGradient id="paint10_radial_2043_45" cx="0" cy="0" r="1" gradientUnits="userSpaceOnUse" gradientTransform="translate(28.4819 27.3562) scale(6.74676 6.53109)">
<stop stop-color="#FFF261"/>
<stop offset="0.11" stop-color="#FAED5F"/>
<stop offset="0.23" stop-color="#ECE05A"/>
<stop offset="0.36" stop-color="#D6CB51"/>
<stop offset="0.5" stop-color="#B6AD45"/>
<stop offset="0.64" stop-color="#8E8636"/>
<stop offset="0.78" stop-color="#5C5723"/>
<stop offset="0.92" stop-color="#22210D"/>
<stop offset="1"/>
</radialGradient>
<radialGradient id="paint11_radial_2043_45" cx="0" cy="0" r="1" gradientUnits="userSpaceOnUse" gradientTransform="translate(0.90107 11.649) scale(4.54057 4.39542)">
<stop stop-color="#FFF261"/>
<stop offset="0.11" stop-color="#FAED5F"/>
<stop offset="0.23" stop-color="#ECE05A"/>
<stop offset="0.36" stop-color="#D6CB51"/>
<stop offset="0.5" stop-color="#B6AD45"/>
<stop offset="0.64" stop-color="#8E8636"/>
<stop offset="0.78" stop-color="#5C5723"/>
<stop offset="0.92" stop-color="#22210D"/>
<stop offset="1"/>
</radialGradient>
<radialGradient id="paint12_radial_2043_45" cx="0" cy="0" r="1" gradientUnits="userSpaceOnUse" gradientTransform="translate(33.38 11.427) scale(5.95739 5.76695)">
<stop stop-color="#FFF261"/>
<stop offset="0.11" stop-color="#FAED5F"/>
<stop offset="0.23" stop-color="#ECE05A"/>
<stop offset="0.36" stop-color="#D6CB51"/>
<stop offset="0.5" stop-color="#B6AD45"/>
<stop offset="0.64" stop-color="#8E8636"/>
<stop offset="0.78" stop-color="#5C5723"/>
<stop offset="0.92" stop-color="#22210D"/>
<stop offset="1"/>
</radialGradient>
<clipPath id="clip0_2043_45">
<rect width="31.3454" height="31.2121" fill="white" transform="translate(0.692017 0.794312)"/>
</clipPath>
</defs>
</svg>
