<svg width="78" height="61" viewBox="0 0 78 61" fill="none" xmlns="http://www.w3.org/2000/svg">
<path d="M23.6434 52.9462L23.5836 49.9557L23.5238 38.7709C23.6354 38.3834 23.6219 38.0046 23.4831 37.6345C23.4273 37.4479 23.3045 37.3482 23.1147 37.3355C21.8244 37.243 20.4614 37.2477 19.026 37.3498C18.6862 37.3722 18.4398 37.4623 18.2867 37.6202C18.1192 37.7924 17.9693 38.0317 17.8369 38.3379C16.2946 41.9011 14.7283 45.4539 13.1381 48.9963C11.5559 52.518 9.9777 56.1083 8.40347 59.7671C8.36116 59.8663 8.2935 59.9529 8.20711 60.0183C8.12071 60.0837 8.01855 60.1258 7.91062 60.1404C5.60748 60.4546 3.25809 60.4737 0.862445 60.1978C0.8295 60.1941 0.799206 60.1782 0.777831 60.1532C0.756456 60.1283 0.745633 60.0963 0.747604 60.0638C0.765149 59.7624 0.852078 59.488 1.00838 59.2408C1.29229 58.7878 1.43823 58.5518 1.4462 58.5326C3.9519 53.207 6.41853 47.8631 8.84607 42.5008C9.82219 40.3444 10.823 38.2191 11.8486 36.1249C11.898 36.0239 11.9064 35.9078 11.872 35.8011C11.8376 35.6944 11.7632 35.6054 11.6644 35.5531C9.79029 34.5578 8.21048 33.2858 6.92493 31.7371C5.97592 30.5935 5.18561 29.2179 4.554 27.6101C3.91283 25.9753 3.50053 24.3325 3.3171 22.6817C3.03798 20.1584 3.0332 17.9606 3.30275 16.0881C3.4447 15.104 3.72462 13.9317 4.1425 12.5712C4.55241 11.2362 4.99262 10.1173 5.46314 9.21453C7.01504 6.23513 9.26475 3.97346 12.2123 2.42953C13.509 1.75007 15.017 1.25882 16.7364 0.955775C18.4829 0.647945 20.2501 0.493233 22.0381 0.491638C24.3476 0.491638 26.6579 0.491638 28.969 0.491638C28.9882 0.491638 29.111 0.484461 29.3375 0.470106C29.8957 0.433422 30.174 0.739656 30.1724 1.38881C30.1517 7.2902 30.1318 13.1916 30.1126 19.093C30.111 19.8012 30.1246 20.4144 30.1533 20.9328C30.2043 21.8435 30.2291 22.4536 30.2275 22.763C30.1876 30.4109 30.1908 38.0596 30.237 45.7091C30.2434 46.8 30.2275 47.891 30.1892 48.9819C30.1477 50.1144 30.1365 51.2029 30.1557 52.2476C30.1892 54.1696 30.1661 56.0915 30.0863 58.0135C30.0672 58.4983 30.0807 59.0486 30.127 59.6643C30.1589 60.0758 29.9691 60.2919 29.5576 60.3126C27.7951 60.4035 25.9649 60.4003 24.0669 60.303C23.9912 60.2992 23.9191 60.2695 23.8625 60.2191C23.8059 60.1686 23.7683 60.1003 23.7559 60.0255C23.6841 59.5965 23.6514 59.1307 23.6578 58.6283C23.6801 56.7335 23.6753 54.8395 23.6434 52.9462ZM23.4329 5.97993C22.8746 5.78694 22.3036 5.71198 21.7199 5.75504C20.9048 5.81406 20.0954 5.91374 19.2915 6.0541C18.1416 6.25347 17.3425 6.41935 16.8943 6.55173C16.0362 6.80214 15.2467 7.18733 14.5258 7.70729C13.8942 8.16185 13.2984 8.78868 12.7386 9.58776C11.0703 11.969 10.1914 14.659 10.1021 17.6575C10.0511 19.345 10.1021 20.92 10.2552 22.3826C10.4211 23.9632 10.8709 25.5127 11.6046 27.0312C12.922 29.7586 15.084 31.3591 18.0905 31.8328C19.6951 32.0864 21.4025 32.1829 23.2128 32.1223C23.2985 32.1198 23.3799 32.0844 23.4401 32.0233C23.5003 31.9622 23.5346 31.8803 23.5358 31.7945C23.6027 25.9777 23.6227 20.1106 23.5956 14.1932C23.594 14.0481 23.5732 13.808 23.5334 13.4731C23.5047 13.2307 23.4991 12.9882 23.5166 12.7458C23.5549 12.237 23.5685 11.8805 23.5573 11.6764C23.4967 10.5982 23.5198 9.52077 23.6267 8.44416C23.6984 7.70569 23.708 6.98078 23.6554 6.26942C23.6503 6.20457 23.6265 6.14265 23.587 6.09124C23.5475 6.03983 23.4939 6.00115 23.4329 5.97993Z" fill="#FE3534"/>
<path d="M39.0126 54.4081C38.3794 54.7015 37.7406 55.0293 37.0962 55.3914C37.0706 55.4056 37.0419 55.4134 37.0126 55.4141C36.9833 55.4149 36.9542 55.4085 36.9279 55.3956C36.9016 55.3826 36.8788 55.3635 36.8614 55.3399C36.8441 55.3163 36.8327 55.2888 36.8283 55.2598C36.8012 55.0907 36.7725 54.9352 36.7422 54.7932C36.7087 54.6258 36.6903 54.4687 36.6871 54.3219C36.4941 44.0647 36.4479 33.8074 36.5484 23.5502C36.5723 21.2119 36.6209 19.798 36.6943 19.3083C36.8985 17.959 37.3411 16.5961 38.0221 15.2196C39.7463 11.7426 41.4912 8.27512 43.2568 4.81722C43.2616 4.80925 43.5447 4.17206 44.1061 2.90565C44.4491 2.13049 44.8949 1.40877 45.4435 0.740477C45.5186 0.648157 45.6179 0.577858 45.7306 0.537118C46.4659 0.270758 46.938 0.393571 47.147 0.905557C47.3192 1.32822 47.5274 1.72936 47.7714 2.10896C48.0936 2.61138 48.3177 2.99896 48.4437 3.2717C50.0992 6.83805 51.7995 10.3821 53.5444 13.9038C54.4822 15.7986 55.2677 17.2795 55.901 18.3466C56.2184 18.8825 56.5493 19.2493 56.8938 19.4471C57.2399 19.6449 57.6219 19.7621 58.0398 19.7988C58.5119 19.8403 58.7536 19.8618 58.7647 19.8634C61.7617 20.3036 64.7602 20.7326 67.7604 21.1505C67.9422 21.176 68.4055 21.2087 69.1504 21.2486C69.5699 21.2709 70.0348 21.33 70.5452 21.4257C72.5261 21.7957 74.5047 22.1793 76.4809 22.5764C76.8987 22.6594 77.2018 22.8181 77.39 23.0525C77.843 23.6203 77.7457 24.2248 77.0981 24.866C76.5542 25.4051 75.9888 25.9195 75.4019 26.4091C74.6586 27.0296 74.0868 27.5336 73.6865 27.9212C71.4535 30.0919 69.2054 32.2475 66.9421 34.388C65.8288 35.4407 64.7219 36.7071 63.6214 38.1872C62.9978 39.0278 62.7625 39.9345 62.9156 40.9074C63.5696 45.0735 64.2985 49.226 65.1023 53.3649C65.3799 54.7909 65.5721 56.6753 65.6789 59.0183C65.6997 59.4697 65.6606 59.8007 65.5617 60.0112C65.3767 60.4036 65.0577 60.4993 64.6047 60.2983C64.2171 60.1276 64.013 60.0383 63.9922 60.0303C63.2107 59.7544 62.4619 59.4067 61.7457 58.9872C60.2831 58.1323 58.7878 57.3404 57.2599 56.6115C55.5373 55.7901 53.8522 54.8993 52.2046 53.9391C50.0418 52.6807 48.6239 51.8864 47.9508 51.5563C46.6988 50.939 45.4172 51.0028 44.1061 51.7476C43.0614 52.341 42.0088 52.9184 40.9481 53.4798C40.6259 53.6505 39.9808 53.9599 39.0126 54.4081Z" fill="#FFDD52"/>
</svg>
